<svg version="1.1" id="Layer_1" xmlns="http://www.w3.org/2000/svg" xmlns:xlink="http://www.w3.org/1999/xlink" x="0px" y="0px"
	 width="100%" viewBox="0 0 1024 1024" enable-background="new 0 0 1024 1024" xml:space="preserve">
<path fill="#000000" opacity="1.000000" stroke="none" 
	d="
M542.656250,148.826111 
	C548.302979,133.317001 554.467407,118.467155 562.490601,103.946762 
	C565.485413,106.880638 564.214539,110.264839 564.649536,113.116608 
	C568.527466,138.535721 583.113770,157.562225 600.875305,174.797882 
	C617.583069,191.010956 637.165283,203.487854 655.740784,217.276260 
	C678.596191,234.241653 702.429077,249.993423 722.564697,270.364838 
	C750.081421,298.203644 767.336792,331.365417 773.144409,370.153290 
	C776.994629,395.867798 772.369141,420.751312 764.616089,445.262787 
	C755.910767,472.784943 741.208679,496.871277 724.186829,519.975525 
	C711.479431,537.223572 697.107788,552.852722 682.516846,568.380859 
	C681.887756,569.050415 681.312256,570.041748 679.815125,569.487732 
	C679.618896,567.206360 681.238281,565.575562 682.227783,563.775635 
	C697.864258,535.332581 710.172791,505.725677 716.206360,473.580872 
	C725.739563,422.791809 715.333801,377.396820 682.327637,337.115143 
	C665.861694,317.019653 646.633362,299.867645 627.803833,282.228210 
	C603.852295,259.790436 581.942017,235.688919 567.099915,206.046417 
	C557.826965,187.526443 551.822021,168.123047 553.604004,147.005386 
	C553.709595,145.754333 553.617737,144.486618 553.617737,142.156540 
	C547.206909,159.242050 543.036194,175.713898 541.315247,192.835205 
	C537.623169,229.565872 551.200745,260.871826 571.368225,290.219696 
	C585.381958,310.612610 602.525452,328.395447 618.457703,347.192719 
	C640.833130,373.591858 661.327393,401.232178 674.206055,433.756042 
	C683.585693,457.443329 687.946960,482.031250 686.197632,507.456909 
	C684.006531,539.302490 673.982971,568.910278 659.132935,596.987244 
	C643.161011,627.185425 622.793884,654.299133 600.816040,680.312256 
	C586.853699,696.838196 571.750366,712.444214 559.632385,730.477234 
	C543.669006,754.232910 533.964355,780.178284 531.114807,808.838562 
	C529.626831,823.803894 531.148376,838.292664 534.109497,852.825562 
	C534.422668,854.362732 535.246948,855.963562 534.463074,857.642822 
	C532.267212,857.530212 532.450256,855.555237 531.947998,854.358887 
	C518.107727,821.388794 520.661194,788.497864 532.543274,755.667053 
	C540.669312,733.214478 554.263794,714.196228 569.658264,696.279236 
	C593.090942,669.006958 617.283936,642.344727 636.906433,612.021179 
	C654.836914,584.312317 668.186096,554.695251 672.429871,521.757080 
	C677.890564,479.373627 669.138916,440.156586 644.617981,404.639008 
	C628.863831,381.819672 610.185303,361.409302 592.887329,339.861938 
	C574.514526,316.975739 557.281494,293.272034 544.852600,266.486664 
	C528.612549,231.487930 527.571655,195.627808 539.203186,159.135635 
	C540.263916,155.807770 541.443176,152.517685 542.656250,148.826111 
M729.659851,498.204346 
	C733.877747,491.993988 737.690674,485.539185 741.061462,478.836273 
	C760.266357,440.645996 767.969543,400.769684 757.744019,358.573395 
	C747.155518,314.879517 721.644775,281.330658 686.187805,254.604507 
	C661.720215,236.161758 635.775635,219.720947 611.994690,200.385773 
	C588.187134,181.029037 567.934204,158.844742 559.936646,127.460052 
	C556.515503,141.597488 555.896179,155.286484 559.080322,168.952713 
	C564.181580,190.846939 575.494690,209.593964 589.476624,226.821411 
	C607.300720,248.782867 628.996948,266.864258 649.559937,286.072510 
	C668.570007,303.830200 687.220886,321.914062 702.385681,343.222565 
	C716.525452,363.090668 726.576843,384.758484 728.143982,409.312408 
	C729.990479,438.244446 726.593384,466.704071 717.631653,494.442688 
	C712.383423,510.687195 705.521667,526.217468 698.121399,541.573364 
	C710.046814,528.397888 719.198425,513.273315 729.659851,498.204346 
z"/>
<path fill="#000000" opacity="1.000000" stroke="none" 
	d="
M500.035217,360.761322 
	C493.294922,378.652435 481.996735,392.518524 466.990875,403.526367 
	C461.619446,407.466675 456.253754,411.427063 451.674591,416.322205 
	C446.265167,422.104950 447.522461,428.465881 454.787048,431.441071 
	C458.941528,433.142578 463.276398,434.429596 467.146851,436.766266 
	C474.981415,441.496155 475.827911,451.149780 468.991577,457.156799 
	C467.866058,458.145752 466.776581,459.182953 465.739929,460.264465 
	C460.918030,465.295166 461.399139,470.012512 467.440826,473.888031 
	C473.475861,477.759277 479.966492,480.813690 486.558136,483.638458 
	C487.419769,484.007660 488.174225,484.627075 489.700745,485.582977 
	C484.975708,486.761597 481.023560,487.230652 476.960632,487.445251 
	C469.639160,487.832062 467.507874,490.234253 467.342194,497.262756 
	C467.290558,499.453278 467.750458,501.578857 469.723541,502.382935 
	C480.234100,506.666016 477.531464,515.355896 476.715668,523.256409 
	C476.326874,527.022034 475.066010,530.702026 474.147369,534.407654 
	C471.315765,545.830017 475.854767,554.053772 487.123993,557.602722 
	C495.542175,560.253723 504.193390,560.272888 512.821472,559.131042 
	C525.319519,557.476990 537.740295,555.171875 550.266602,553.814697 
	C567.509705,551.946472 579.842468,559.644897 587.086914,576.044128 
	C594.703918,593.286865 597.393311,611.219971 595.568787,630.047974 
	C594.404663,642.061401 592.050476,653.784424 589.428894,665.556458 
	C588.241943,661.884521 588.737610,658.205200 589.023987,654.549744 
	C590.834534,631.441528 588.740967,608.746826 581.636292,586.628113 
	C579.696960,580.590332 576.855774,574.940613 572.846375,569.919006 
	C565.666504,560.926636 556.311707,560.880676 546.107971,562.726746 
	C531.569031,565.357178 516.998962,567.880798 502.088898,567.389832 
	C491.229218,567.032166 481.477051,563.934937 473.123016,556.913696 
	C466.144714,551.048584 463.008331,543.768127 465.827454,534.705200 
	C467.463562,529.445374 468.570129,524.079407 469.375519,518.665405 
	C469.877594,515.290344 470.519409,511.771667 466.640472,509.346741 
	C458.022034,503.959076 456.466522,495.080719 462.430664,486.616364 
	C463.461853,485.152924 464.605408,483.768646 465.816589,482.192230 
	C464.897980,481.355621 464.384216,480.688446 463.709503,480.303162 
	C453.854126,474.675995 455.436737,463.045898 460.592102,456.438019 
	C461.613342,455.129089 462.874451,454.010315 463.955170,452.744293 
	C468.393768,447.544525 467.446381,444.540680 460.855438,442.976166 
	C450.629974,440.548889 443.224030,435.432617 441.893890,424.011810 
	C441.383423,419.628937 441.716858,415.877808 445.254974,412.669281 
	C453.272064,405.399078 461.020782,397.832825 469.041809,390.567108 
	C487.938263,373.450104 498.562744,352.596100 497.601715,326.723022 
	C496.542358,298.202637 507.886597,275.049103 527.564880,255.318420 
	C528.114502,254.767334 528.837158,254.388794 529.668884,253.794128 
	C530.922546,256.041229 529.283691,257.170319 528.483154,258.384094 
	C516.852173,276.018433 509.038727,295.183655 506.614227,316.192657 
	C505.360199,327.058990 505.677155,338.112030 503.345276,348.880005 
	C502.503967,352.764984 501.249451,356.560516 500.035217,360.761322 
z"/>
<path fill="#000000" opacity="1.000000" stroke="none" 
	d="
M180.816086,364.347412 
	C181.516357,358.292358 183.652588,356.362183 188.779037,356.698853 
	C193.704590,357.022308 195.333069,358.948822 195.341034,364.626373 
	C195.361145,378.959625 195.335983,393.292969 195.364288,407.626190 
	C195.368729,409.878876 194.780823,412.627655 198.471497,412.628876 
	C213.772476,412.633911 229.073456,412.631012 244.739059,412.631012 
	C245.888870,398.644104 245.453812,385.054932 245.643661,371.319794 
	C249.503067,370.131989 253.156387,370.608734 256.739685,370.812775 
	C260.093445,371.003723 259.242432,373.843018 259.249969,375.817444 
	C259.313812,392.483795 259.286835,409.150482 259.286377,425.817078 
	C259.286072,436.650360 259.163086,447.485748 259.347137,458.315887 
	C259.414734,462.293030 258.322693,464.135345 253.995300,463.861176 
	C243.653488,463.206024 244.965012,464.678223 245.034073,454.486511 
	C245.089386,446.327148 245.304733,438.165253 245.655014,430.013306 
	C245.804489,426.534912 244.519653,425.284882 241.049194,425.314728 
	C227.383621,425.432281 213.714966,425.465149 200.050751,425.282257 
	C196.258102,425.231476 195.192947,426.610199 195.236404,430.240234 
	C195.397995,443.738251 195.349594,457.239624 195.275177,470.739166 
	C195.243439,476.492523 191.224747,479.578003 185.664597,478.163788 
	C182.701721,477.410187 180.630417,475.684418 180.668655,472.221039 
	C180.926208,448.900238 180.098022,425.565002 181.511703,402.260193 
	C182.270493,389.751434 180.297379,377.304352 180.816086,364.347412 
z"/>
<path fill="#000000" opacity="1.000000" stroke="none" 
	d="
M277.752930,403.060120 
	C285.213470,384.340851 299.441101,375.034821 318.519348,375.126526 
	C338.524170,375.222656 354.695312,385.612579 360.517578,407.520081 
	C360.857513,408.799255 361.276398,410.057404 361.677399,411.387756 
	C363.244415,411.657745 363.986511,410.277466 364.918213,409.540222 
	C367.682831,407.352783 370.147186,407.792053 371.449585,410.756104 
	C372.989349,414.260284 375.753479,415.239777 378.956787,415.496002 
	C389.216614,416.316803 399.498291,416.867035 409.756012,417.710388 
	C417.419800,418.340546 425.090118,418.874329 432.832550,419.314545 
	C430.298157,420.985626 427.533142,421.094757 424.791656,421.135406 
	C408.989929,421.369720 393.207794,421.994049 377.457397,423.328552 
	C375.834351,423.466034 374.262817,423.231689 372.967896,424.831879 
	C368.203735,430.719147 368.144409,430.671143 361.705658,426.766968 
	C356.527496,442.399536 348.439728,455.528137 331.517639,460.537598 
	C320.574646,463.777069 309.801788,463.161987 299.408386,458.449524 
	C278.541748,448.988342 269.689117,426.478394 277.752930,403.060120 
M293.698822,436.782654 
	C300.753143,446.592804 310.601654,450.922638 322.270447,449.320862 
	C335.877747,447.452881 344.189911,438.665680 347.528381,425.618713 
	C350.557343,413.781555 346.596954,403.385803 337.949188,395.380341 
	C327.600677,385.800385 308.886566,386.140381 298.875641,395.216705 
	C289.493073,403.723297 283.783722,423.457855 293.698822,436.782654 
z"/>
<path fill="#000000" opacity="1.000000" stroke="none" 
	d="
M543.264648,364.279816 
	C547.676208,362.037201 551.742981,359.962891 556.321899,357.627350 
	C549.957825,369.101410 521.782593,383.419739 507.142822,374.227386 
	C506.853424,371.164154 509.008881,368.767914 509.989807,366.059692 
	C510.865662,363.641663 513.101562,365.032532 514.739197,365.510529 
	C524.259644,368.289581 533.665222,368.497742 543.264648,364.279816 
z"/>
</svg>